Coordinates
nRows=132
nColumns=2
inDegrees=yes
endheader
time	ankle_angle_r	
3.50706	 -0.407046	
3.57863	 -0.479909	
3.6502	 -0.512032	
3.72177	 -0.501030	
3.79335	 -0.490233	
3.86492	 -0.505857	
3.93649	 -0.537769	
4.00806	 -0.504070	
4.07964	 -0.449253	
4.15121	 -0.448854	
4.22278	 -0.437371	
4.29435	 -0.427531	
4.36593	 -0.423360	
4.4375	 -0.414883	
4.50907	 -0.432523	
4.58065	 -0.431800	
4.65222	 -0.413732	
4.72379	 -0.439160	
4.79536	 -0.513162	
4.86694	 -0.535963	
4.93851	 -0.486273	
5.01008	 -0.502082	
5.08165	 -0.545891	
5.15323	 -0.509915	
5.2248	 -0.472716	
5.29637	 -0.493027	
5.36794	 -0.525341	
5.43952	 -0.516691	
5.51109	 -0.466280	
5.58266	 -0.459378	
5.65423	 -0.524169	
5.72581	 -0.533728	
5.79738	 -0.469744	
5.86895	 -0.457998	
5.94052	 -0.491954	
6.0121	 -0.474222	
6.08367	 -0.429476	
6.15524	 -0.452667	
6.22681	 -0.485804	
6.29839	 -0.464097	
6.36996	 -0.447791	
6.44153	 -0.460363	
6.5131	 -0.475245	
6.58468	 -0.457766	
6.65625	 -0.437957	
6.72782	 -0.437565	
6.7994	 -0.432835	
6.87097	 -0.425755	
6.94254	 -0.404636	
7.01411	 -0.415203	
7.08569	 -0.476401	
7.15726	 -0.505246	
7.22883	 -0.464650	
7.3004	 -0.453176	
7.37198	 -0.518949	
7.44355	 -0.506397	
7.51512	 -0.435096	
7.58669	 -0.478923	
7.65827	 -0.551035	
7.72984	 -0.519211	
7.80141	 -0.448997	
7.87298	 -0.440123	
7.94456	 -0.484809	
8.01613	 -0.503733	
8.0877	 -0.479746	
8.15927	 -0.487072	
8.23085	 -0.518801	
8.30242	 -0.497145	
8.37399	 -0.472543	
8.44556	 -0.488972	
8.51714	 -0.487098	
8.58871	 -0.446255	
8.66028	 -0.402733	
8.73185	 -0.404586	
8.80343	 -0.431451	
8.875	 -0.438803	
8.94657	 -0.421985	
9.01815	 -0.412824	
9.08972	 -0.445300	
9.16129	 -0.465939	
9.23286	 -0.456345	
9.30444	 -0.459207	
9.37601	 -0.482582	
9.44758	 -0.486092	
9.51915	 -0.451540	
9.59073	 -0.470501	
9.6623	 -0.525859	
9.73387	 -0.523041	
9.80544	 -0.499731	
9.87702	 -0.502226	
9.94859	 -0.500824	
10.0202	 -0.452660	
10.0917	 -0.411580	
10.1633	 -0.428366	
10.2349	 -0.452937	
10.3065	 -0.436055	
10.378	 -0.416302	
10.4496	 -0.467421	
10.5212	 -0.494558	
10.5927	 -0.432909	
10.6643	 -0.406584	
10.7359	 -0.455279	
10.8075	 -0.488114	
10.879	 -0.459390	
10.9506	 -0.449565	
11.0222	 -0.490296	
11.0937	 -0.522907	
11.1653	 -0.509075	
11.2369	 -0.477894	
11.3085	 -0.516434	
11.38	 -0.555688	
11.4516	 -0.511182	
11.5232	 -0.482043	
11.5948	 -0.510754	
11.6663	 -0.526230	
11.7379	 -0.504216	
11.8095	 -0.502888	
11.881	 -0.541882	
11.9526	 -0.571240	
12.0242	 -0.556236	
12.0958	 -0.537806	
12.1673	 -0.556906	
12.2389	 -0.527525	
12.3105	 -0.458513	
12.3821	 -0.442827	
12.4536	 -0.448725	
12.5252	 -0.447867	
12.5968	 -0.406131	
12.6683	 -0.367869	
12.7399	 -0.412036	
12.8115	 -0.452188	
12.8831	 -0.442431	
